<svg xmlns:xlink="http://www.w3.org/1999/xlink" xmlns="http://www.w3.org/2000/svg" width="125" height="13" viewBox="0 0 125 13" fill="none">
<g clip-path="url(#clip0_1083_504)">
<path d="M112.119 7.99653V0H105V13H125V7.99653H112.119Z" fill="#E3E6E8"/>
<path d="M15.0526 3.8405H6.9579V0H0V13H6.9579V8.84397H15.0526V13H22V0H15.0526V3.8405Z" fill="#E3E6E8"/>
<path d="M43.3494 0H42.9444H35L38.9774 5.9681L43.6506 13H51.9896H52L43.3494 0Z" fill="#E3E6E8"/>
<path d="M26 13H33.8239L38 6.81713L34.0779 1L26 13Z" fill="#E3E6E8"/>
<path d="M92.339 0H91.9444H84L87.967 5.9681L92.6506 13H100.99H101L92.3494 0H92.339Z" fill="#E3E6E8"/>
<path d="M75 13H82.834L87 6.81713L83.0881 1L75 13Z" fill="#E3E6E8"/>
<path d="M77 0H68.6455L63.9694 7.0319L60 13H67.9389H68.3441H68.3545L77 0Z" fill="#E3E6E8"/>
<path d="M58.8239 0H51L59.0779 12L63 6.19158L58.8239 0Z" fill="#E3E6E8"/>
</g>
<defs>
<clipPath id="clip0_1083_504">
<rect width="125" height="13" fill="white"/>
</clipPath>
</defs>
</svg>