<svg xmlns="http://www.w3.org/2000/svg" width="132" height="65" viewBox="0 0 132 65" fill="none">
<path fill-rule="evenodd" clip-rule="evenodd" d="M52.9639 0.408936H49.2847L53.7473 8.74072V12.5624H57.023V8.74072L61.4856 0.408936H57.8063L55.4326 5.34629H55.3377L52.9639 0.408936ZM68.0928 0.408936V12.5624H76.3059V9.90384H71.3923V0.408936H68.0928ZM96.7755 26.9097C97.3017 25.98 97.5648 24.8386 97.5648 23.4856C97.5648 22.1326 97.3017 20.9932 96.7755 20.0674C96.2494 19.1377 95.5392 18.4355 94.6451 17.9607C93.751 17.482 92.7541 17.2427 91.6542 17.2427C90.5465 17.2427 89.5456 17.482 88.6515 17.9607C87.7613 18.4355 87.0532 19.1377 86.527 20.0674C86.0048 20.9932 85.7437 22.1326 85.7437 23.4856C85.7437 24.8307 86.0048 25.9681 86.527 26.8978C87.0532 27.8236 87.7613 28.5278 88.6515 29.0104C89.5456 29.4891 90.5465 29.7285 91.6542 29.7285C92.7541 29.7285 93.751 29.4911 94.6451 29.0164C95.5392 28.5377 96.2494 27.8354 96.7755 26.9097ZM93.8796 21.6459C94.0735 22.1444 94.1704 22.7576 94.1704 23.4856C94.1704 24.2135 94.0735 24.8287 93.8796 25.3312C93.6897 25.8296 93.4068 26.2094 93.031 26.4705C92.6591 26.7277 92.2002 26.8563 91.6542 26.8563C91.1083 26.8563 90.6474 26.7277 90.2715 26.4705C89.8997 26.2094 89.6168 25.8296 89.4229 25.3312C89.233 24.8287 89.1381 24.2135 89.1381 23.4856C89.1381 22.7576 89.233 22.1444 89.4229 21.6459C89.6168 21.1435 89.8997 20.7637 90.2715 20.5065C90.6474 20.2454 91.1083 20.1149 91.6542 20.1149C92.2002 20.1149 92.6591 20.2454 93.031 20.5065C93.4068 20.7637 93.6897 21.1435 93.8796 21.6459ZM99.4253 29.5624V17.4089H102.725V26.9038H107.638V29.5624H99.4253ZM108.903 29.5624H112.463L113.166 27.2362H117.173L117.876 29.5624H121.436L117.425 17.4089H112.914L108.903 29.5624ZM116.428 24.7675L115.217 20.7559H115.122L113.911 24.7675H116.428ZM121.075 17.4089V20.0675H124.73V29.5624H127.982V20.0675H131.638V17.4089H121.075ZM75.6978 29.5624V17.4089H84.2432V20.0675H78.9972V22.1564H83.721V24.815H78.9972V29.5624H75.6978ZM61.6597 29.5624H65.2203L65.9225 27.2362H69.9301L70.6324 29.5624H74.1929L70.1813 17.4089H65.6713L61.6597 29.5624ZM67.9738 20.7559L69.1848 24.7675H66.6678L67.8788 20.7559H67.9738ZM49.7832 29.5624V17.4089H53.0827V22.3226H53.2488L56.9044 17.4089H60.7498L56.6433 22.821L60.8448 29.5624H56.9044L54.1746 25.0049L53.0827 26.4291V29.5624H49.7832ZM66.195 0.408936V12.5624H62.8955V0.408936H66.195Z" fill="white"/>
<path fill-rule="evenodd" clip-rule="evenodd" d="M123.86 35.5254V36.0623H124.656V35.5204C124.656 35.3248 124.685 35.1475 124.743 34.9884C124.802 34.8293 124.879 34.6769 124.972 34.5311L124.504 34.2551C124.39 34.3496 124.284 34.4672 124.186 34.6081C124.088 34.749 124.009 34.8989 123.95 35.058C123.89 35.2171 123.86 35.3729 123.86 35.5254ZM125.753 39.5623V34.4714H126.829V38.6749H129.012V39.5623H125.753ZM58.8884 45.0169C58.8884 45.5721 58.7831 46.0444 58.5727 46.4338C58.3639 46.8233 58.0788 47.1207 57.7176 47.3262C57.3579 47.5301 56.9536 47.632 56.5045 47.632C56.0521 47.632 55.6461 47.5292 55.2864 47.3237C54.9268 47.1182 54.6426 46.8208 54.4338 46.4313C54.225 46.0419 54.1206 45.5704 54.1206 45.0169C54.1206 44.4618 54.225 43.9895 54.4338 43.6C54.6426 43.2106 54.9268 42.9139 55.2864 42.7101C55.6461 42.5046 56.0521 42.4019 56.5045 42.4019C56.9536 42.4019 57.3579 42.5046 57.7176 42.7101C58.0788 42.9139 58.3639 43.2106 58.5727 43.6C58.7831 43.9895 58.8884 44.4618 58.8884 45.0169ZM57.7971 45.0169C57.7971 44.6573 57.7432 44.354 57.6355 44.1071C57.5295 43.8602 57.3795 43.6729 57.1856 43.5453C56.9917 43.4177 56.7647 43.3539 56.5045 43.3539C56.2443 43.3539 56.0173 43.4177 55.8234 43.5453C55.6295 43.6729 55.4787 43.8602 55.371 44.1071C55.2649 44.354 55.2119 44.6573 55.2119 45.0169C55.2119 45.3765 55.2649 45.6798 55.371 45.9267C55.4787 46.1736 55.6295 46.3609 55.8234 46.4885C56.0173 46.6161 56.2443 46.6799 56.5045 46.6799C56.7647 46.6799 56.9917 46.6161 57.1856 46.4885C57.3795 46.3609 57.5295 46.1736 57.6355 45.9267C57.7432 45.6798 57.7971 45.3765 57.7971 45.0169ZM62.3314 43.4683C62.4822 43.5793 62.5675 43.7351 62.5874 43.9356H63.619C63.614 43.6323 63.5328 43.3655 63.3754 43.1352C63.218 42.9048 62.9976 42.725 62.7142 42.5957C62.4325 42.4665 62.1027 42.4019 61.7248 42.4019C61.3536 42.4019 61.0222 42.4665 60.7305 42.5957C60.4388 42.725 60.2093 42.9048 60.0419 43.1352C59.8762 43.3655 59.7942 43.6348 59.7959 43.943C59.7942 44.3192 59.9177 44.6184 60.1662 44.8404C60.4148 45.0625 60.7537 45.2257 61.1829 45.3301L61.7373 45.4693C61.9229 45.5141 62.0795 45.5638 62.2071 45.6185C62.3363 45.6732 62.4341 45.7395 62.5004 45.8173C62.5683 45.8952 62.6023 45.9913 62.6023 46.1057C62.6023 46.2283 62.565 46.3369 62.4905 46.4313C62.4159 46.5258 62.3107 46.5995 62.1748 46.6526C62.0405 46.7056 61.8823 46.7321 61.7 46.7321C61.5144 46.7321 61.3478 46.7039 61.2003 46.6476C61.0545 46.5896 60.9377 46.5042 60.8498 46.3916C60.7637 46.2772 60.7148 46.1347 60.7032 45.964H59.6616C59.6699 46.3302 59.7586 46.6377 59.9276 46.8862C60.0983 47.1332 60.3353 47.3196 60.6385 47.4455C60.9435 47.5715 61.3014 47.6345 61.7124 47.6345C62.1267 47.6345 62.4805 47.5723 62.7738 47.448C63.0688 47.3221 63.2942 47.1456 63.45 46.9185C63.6074 46.6899 63.687 46.4197 63.6886 46.1082C63.687 45.8961 63.648 45.708 63.5718 45.5439C63.4972 45.3798 63.392 45.2373 63.2561 45.1163C63.1202 44.9954 62.9594 44.8935 62.7738 44.8106C62.5882 44.7277 62.3844 44.6614 62.1623 44.6117L61.7049 44.5024C61.5939 44.4775 61.4895 44.4477 61.3917 44.4129C61.294 44.3764 61.2078 44.3341 61.1332 44.2861C61.0586 44.2364 60.9998 44.1775 60.9567 44.1096C60.9153 44.0417 60.8962 43.9621 60.8995 43.871C60.8995 43.7616 60.931 43.6638 60.994 43.5776C61.0586 43.4915 61.1514 43.4243 61.2724 43.3763C61.3934 43.3266 61.5417 43.3017 61.7174 43.3017C61.9759 43.3017 62.1806 43.3572 62.3314 43.4683ZM69.1605 43.4683C69.3113 43.5793 69.3966 43.7351 69.4165 43.9356H70.4481C70.4431 43.6323 70.3619 43.3655 70.2045 43.1352C70.0471 42.9048 69.8267 42.725 69.5433 42.5957C69.2616 42.4665 68.9318 42.4019 68.5539 42.4019C68.1827 42.4019 67.8513 42.4665 67.5596 42.5957C67.2679 42.725 67.0384 42.9048 66.871 43.1352C66.7053 43.3655 66.6233 43.6348 66.625 43.943C66.6233 44.3192 66.7468 44.6184 66.9953 44.8404C67.2439 45.0625 67.5828 45.2257 68.012 45.3301L68.5664 45.4693C68.752 45.5141 68.9086 45.5638 69.0362 45.6185C69.1654 45.6732 69.2632 45.7395 69.3295 45.8173C69.3974 45.8952 69.4314 45.9913 69.4314 46.1057C69.4314 46.2283 69.3941 46.3369 69.3196 46.4313C69.245 46.5258 69.1398 46.5995 69.0039 46.6526C68.8696 46.7056 68.7114 46.7321 68.5291 46.7321C68.3435 46.7321 68.1769 46.7039 68.0294 46.6476C67.8836 46.5896 67.7668 46.5042 67.6789 46.3916C67.5928 46.2772 67.5439 46.1347 67.5323 45.964H66.4907C66.499 46.3302 66.5877 46.6377 66.7567 46.8862C66.9274 47.1332 67.1644 47.3196 67.4676 47.4455C67.7726 47.5715 68.1305 47.6345 68.5415 47.6345C68.9558 47.6345 69.3096 47.5723 69.6029 47.448C69.8979 47.3221 70.1233 47.1456 70.2791 46.9185C70.4365 46.6899 70.5161 46.4197 70.5177 46.1082C70.5161 45.8961 70.4771 45.708 70.4009 45.5439C70.3263 45.3798 70.2211 45.2373 70.0852 45.1163C69.9493 44.9954 69.7885 44.8935 69.6029 44.8106C69.4173 44.7277 69.2135 44.6614 68.9914 44.6117L68.534 44.5024C68.423 44.4775 68.3186 44.4477 68.2208 44.4129C68.1231 44.3764 68.0369 44.3341 67.9623 44.2861C67.8877 44.2364 67.8289 44.1775 67.7858 44.1096C67.7444 44.0417 67.7253 43.9621 67.7286 43.871C67.7286 43.7616 67.7601 43.6638 67.8231 43.5776C67.8877 43.4915 67.9805 43.4243 68.1015 43.3763C68.2225 43.3266 68.3708 43.3017 68.5465 43.3017C68.805 43.3017 69.0097 43.3572 69.1605 43.4683ZM99.5463 46.4338C99.7568 46.0444 99.862 45.5721 99.862 45.0169C99.862 44.4618 99.7568 43.9895 99.5463 43.6C99.3375 43.2106 99.0525 42.9139 98.6912 42.7101C98.3316 42.5046 97.9272 42.4019 97.4781 42.4019C97.0257 42.4019 96.6197 42.5046 96.2601 42.7101C95.9005 42.9139 95.6163 43.2106 95.4075 43.6C95.1986 43.9895 95.0942 44.4618 95.0942 45.0169C95.0942 45.5704 95.1986 46.0419 95.4075 46.4313C95.6163 46.8208 95.9005 47.1182 96.2601 47.3237C96.6197 47.5292 97.0257 47.632 97.4781 47.632C97.9272 47.632 98.3316 47.5301 98.6912 47.3262C99.0525 47.1207 99.3375 46.8233 99.5463 46.4338ZM98.6092 44.1071C98.7169 44.354 98.7707 44.6573 98.7707 45.0169C98.7707 45.3765 98.7169 45.6798 98.6092 45.9267C98.5031 46.1736 98.3531 46.3609 98.1592 46.4885C97.9653 46.6161 97.7383 46.6799 97.4781 46.6799C97.2179 46.6799 96.9909 46.6161 96.797 46.4885C96.6031 46.3609 96.4523 46.1736 96.3446 45.9267C96.2385 45.6798 96.1855 45.3765 96.1855 45.0169C96.1855 44.6573 96.2385 44.354 96.3446 44.1071C96.4523 43.8602 96.6031 43.6729 96.797 43.5453C96.9909 43.4177 97.2179 43.3539 97.4781 43.3539C97.7383 43.3539 97.9653 43.4177 98.1592 43.5453C98.3531 43.6729 98.5031 43.8602 98.6092 44.1071ZM100.799 47.5623V42.4714H101.876V46.6749H104.058V47.5623H100.799ZM104.765 47.5623H105.918L106.296 46.4015H108.134L108.511 47.5623H109.664L107.909 42.4714H106.522L104.765 47.5623ZM107.861 45.5613L107.236 43.6348H107.196L106.569 45.5613H107.861ZM109.601 43.3589V42.4714H113.782V43.3589H112.224V47.5623H111.16V43.3589H109.601ZM115.687 42.4714V47.5623H114.611V42.4714H115.687ZM90.9487 47.5623V42.4714H94.3195V43.3589H92.0251V44.5719H94.0957V45.4594H92.0251V47.5623H90.9487ZM85.2964 47.5623H86.4498L86.8274 46.4015H88.6656L89.0425 47.5623H90.1959L88.4409 42.4714H87.0538L85.2964 47.5623ZM87.7673 43.6348L88.3928 45.5613H87.1008L87.7275 43.6348H87.7673ZM80.6064 47.5623V42.4714H81.6828V44.7161H81.7499L83.5819 42.4714H84.8721L82.9829 44.7509L84.8944 47.5623H83.6068L82.2123 45.4693L81.6828 46.1156V47.5623H80.6064ZM77.8205 47.5623V42.4714H76.7441V47.5623H77.8205ZM71.3818 47.5623V42.4714H72.4582V44.5719H74.6432V42.4714H75.7171V47.5623H74.6432V45.4594H72.4582V47.5623H71.3818ZM65.6291 42.4714V47.5623H64.5527V42.4714H65.6291ZM49.4424 42.4714V47.5623H51.6175C51.9986 47.5623 52.3193 47.501 52.5795 47.3784C52.8396 47.2558 53.036 47.0892 53.1686 46.8788C53.3028 46.6666 53.3699 46.4255 53.3699 46.1554C53.3699 45.9051 53.3169 45.6897 53.2108 45.5091C53.1048 45.3268 52.9664 45.1851 52.7957 45.084C52.6267 44.9829 52.4452 44.9282 52.2513 44.9199V44.8702C52.4287 44.8305 52.5861 44.7633 52.7236 44.6689C52.8628 44.5728 52.9722 44.4501 53.0518 44.301C53.1313 44.1502 53.1711 43.9753 53.1711 43.7765C53.1711 43.5213 53.1081 43.2959 52.9822 43.1003C52.8562 42.9031 52.6681 42.749 52.4179 42.638C52.1676 42.527 51.8553 42.4714 51.4807 42.4714H49.4424ZM51.3962 46.6824H50.5187V45.3301H51.4211C51.5934 45.3301 51.7417 45.3608 51.866 45.4221C51.992 45.4834 52.0889 45.5679 52.1569 45.6756C52.2248 45.7833 52.2588 45.9076 52.2588 46.0485C52.2588 46.2407 52.19 46.3948 52.0525 46.5109C51.9149 46.6252 51.6962 46.6824 51.3962 46.6824ZM51.3167 44.6018H50.5187V43.3415H51.3366C51.5752 43.3415 51.7591 43.3978 51.8884 43.5105C52.0193 43.6232 52.0848 43.7715 52.0848 43.9555C52.0848 44.0897 52.0508 44.2049 51.9829 44.301C51.9166 44.3971 51.8254 44.4717 51.7094 44.5247C51.5951 44.5761 51.4642 44.6018 51.3167 44.6018ZM123.219 37.0169C123.219 37.5721 123.114 38.0444 122.904 38.4338C122.695 38.8233 122.41 39.1207 122.049 39.3262C121.689 39.5301 121.285 39.632 120.836 39.632C120.383 39.632 119.977 39.5292 119.618 39.3237C119.258 39.1182 118.974 38.8208 118.765 38.4313C118.556 38.0419 118.452 37.5704 118.452 37.0169C118.452 36.4618 118.556 35.9895 118.765 35.6C118.974 35.2106 119.258 34.9139 119.618 34.7101C119.977 34.5046 120.383 34.4019 120.836 34.4019C121.285 34.4019 121.689 34.5046 122.049 34.7101C122.41 34.9139 122.695 35.2106 122.904 35.6C123.114 35.9895 123.219 36.4618 123.219 37.0169ZM122.128 37.0169C122.128 36.6573 122.074 36.354 121.967 36.1071C121.861 35.8602 121.711 35.6729 121.517 35.5453C121.323 35.4177 121.096 35.3539 120.836 35.3539C120.575 35.3539 120.348 35.4177 120.154 35.5453C119.961 35.6729 119.81 35.8602 119.702 36.1071C119.596 36.354 119.543 36.6573 119.543 37.0169C119.543 37.3765 119.596 37.6798 119.702 37.9267C119.81 38.1736 119.961 38.3609 120.154 38.4885C120.348 38.6161 120.575 38.6799 120.836 38.6799C121.096 38.6799 121.323 38.6161 121.517 38.4885C121.711 38.3609 121.861 38.1736 121.967 37.9267C122.074 37.6798 122.128 37.3765 122.128 37.0169ZM114.544 34.4714H113.338L115.195 37.7626V39.5623H116.264V37.7626L118.121 34.4714H116.915L115.755 36.6639H115.705L114.544 34.4714ZM105.331 34.4714H106.658L108.06 37.8919H108.12L109.522 34.4714H110.85V39.5623H109.805V36.2488H109.763L108.446 39.5375H107.735L106.417 36.2364H106.375V39.5623H105.331V34.4714ZM100.365 34.4714V39.5623H101.441V38.1156L101.971 37.4693L103.365 39.5623H104.653L102.741 36.7509L104.63 34.4714H103.34L101.508 36.7161H101.441V34.4714H100.365ZM95.6114 39.6742C95.1839 39.6726 94.816 39.5673 94.5078 39.3585C94.2012 39.1497 93.965 38.8473 93.7993 38.4512C93.6352 38.0551 93.554 37.5787 93.5557 37.0219C93.5557 36.4667 93.6377 35.9936 93.8018 35.6025C93.9675 35.2114 94.2037 34.9139 94.5102 34.7101C94.8185 34.5046 95.1855 34.4019 95.6114 34.4019C96.0373 34.4019 96.4036 34.5046 96.7102 34.7101C97.0184 34.9156 97.2554 35.2139 97.4211 35.605C97.5868 35.9944 97.6689 36.4667 97.6672 37.0219C97.6672 37.5804 97.5843 38.0576 97.4186 38.4537C97.2546 38.8498 97.0192 39.1522 96.7127 39.361C96.4061 39.5698 96.039 39.6742 95.6114 39.6742ZM95.6114 38.7818C95.9031 38.7818 96.1359 38.6352 96.31 38.3418C96.484 38.0485 96.5701 37.6085 96.5685 37.0219C96.5685 36.6358 96.5287 36.3143 96.4492 36.0574C96.3713 35.8005 96.2602 35.6075 96.1161 35.4782C95.9735 35.3489 95.8053 35.2843 95.6114 35.2843C95.3214 35.2843 95.0894 35.4293 94.9154 35.7193C94.7414 36.0093 94.6536 36.4435 94.6519 37.0219C94.6519 37.413 94.6909 37.7395 94.7688 38.0013C94.8483 38.2615 94.9602 38.457 95.1043 38.5879C95.2485 38.7172 95.4176 38.7818 95.6114 38.7818ZM89.5488 39.3585C89.857 39.5673 90.2249 39.6726 90.6525 39.6742C91.08 39.6742 91.4471 39.5698 91.7537 39.361C92.0602 39.1522 92.2956 38.8498 92.4596 38.4537C92.6254 38.0576 92.7082 37.5804 92.7082 37.0219C92.7099 36.4667 92.6278 35.9944 92.4621 35.605C92.2964 35.2139 92.0594 34.9156 91.7512 34.7101C91.4446 34.5046 91.0784 34.4019 90.6525 34.4019C90.2266 34.4019 89.8595 34.5046 89.5513 34.7101C89.2447 34.9139 89.0085 35.2114 88.8428 35.6025C88.6787 35.9936 88.5967 36.4667 88.5967 37.0219C88.595 37.5787 88.6763 38.0551 88.8403 38.4512C89.006 38.8473 89.2422 39.1497 89.5488 39.3585ZM91.351 38.3418C91.177 38.6352 90.9441 38.7818 90.6525 38.7818C90.4586 38.7818 90.2895 38.7172 90.1454 38.5879C90.0012 38.457 89.8893 38.2615 89.8098 38.0013C89.7319 37.7395 89.6929 37.413 89.6929 37.0219C89.6946 36.4435 89.7824 36.0093 89.9564 35.7193C90.1304 35.4293 90.3624 35.2843 90.6525 35.2843C90.8464 35.2843 91.0146 35.3489 91.1571 35.4782C91.3013 35.6075 91.4123 35.8005 91.4902 36.0574C91.5697 36.3143 91.6095 36.6358 91.6095 37.0219C91.6111 37.6085 91.525 38.0485 91.351 38.3418ZM85.693 39.6742C85.2654 39.6726 84.8975 39.5673 84.5893 39.3585C84.2827 39.1497 84.0466 38.8473 83.8808 38.4512C83.7168 38.0551 83.6356 37.5787 83.6372 37.0219C83.6372 36.4667 83.7193 35.9936 83.8833 35.6025C84.049 35.2114 84.2852 34.9139 84.5918 34.7101C84.9 34.5046 85.2671 34.4019 85.693 34.4019C86.1189 34.4019 86.4851 34.5046 86.7917 34.7101C87.0999 34.9156 87.3369 35.2139 87.5026 35.605C87.6684 35.9944 87.7504 36.4667 87.7487 37.0219C87.7487 37.5804 87.6659 38.0576 87.5002 38.4537C87.3361 38.8498 87.1008 39.1522 86.7942 39.361C86.4876 39.5698 86.1205 39.6742 85.693 39.6742ZM85.693 38.7818C85.9847 38.7818 86.2175 38.6352 86.3915 38.3418C86.5655 38.0485 86.6517 37.6085 86.65 37.0219C86.65 36.6358 86.6102 36.3143 86.5307 36.0574C86.4528 35.8005 86.3418 35.6075 86.1976 35.4782C86.0551 35.3489 85.8869 35.2843 85.693 35.2843C85.403 35.2843 85.171 35.4293 84.997 35.7193C84.823 36.0093 84.7351 36.4435 84.7335 37.0219C84.7335 37.413 84.7724 37.7395 84.8503 38.0013C84.9298 38.2615 85.0417 38.457 85.1859 38.5879C85.3301 38.7172 85.4991 38.7818 85.693 38.7818ZM77.8701 39.3585C78.1783 39.5673 78.5462 39.6726 78.9737 39.6742C79.4013 39.6742 79.7684 39.5698 80.075 39.361C80.3815 39.1522 80.6169 38.8498 80.7809 38.4537C80.9466 38.0576 81.0295 37.5804 81.0295 37.0219C81.0312 36.4667 80.9491 35.9944 80.7834 35.605C80.6177 35.2139 80.3807 34.9156 80.0725 34.7101C79.7659 34.5046 79.3996 34.4019 78.9737 34.4019C78.5478 34.4019 78.1808 34.5046 77.8725 34.7101C77.566 34.9139 77.3298 35.2114 77.1641 35.6025C77 35.9936 76.918 36.4667 76.918 37.0219C76.9163 37.5787 76.9975 38.0551 77.1616 38.4512C77.3273 38.8473 77.5635 39.1497 77.8701 39.3585ZM79.6723 38.3418C79.4982 38.6352 79.2654 38.7818 78.9737 38.7818C78.7799 38.7818 78.6108 38.7172 78.4666 38.5879C78.3225 38.457 78.2106 38.2615 78.1311 38.0013C78.0532 37.7395 78.0142 37.413 78.0142 37.0219C78.0159 36.4435 78.1037 36.0093 78.2777 35.7193C78.4517 35.4293 78.6837 35.2843 78.9737 35.2843C79.1676 35.2843 79.3358 35.3489 79.4784 35.4782C79.6225 35.6075 79.7336 35.8005 79.8115 36.0574C79.891 36.3143 79.9308 36.6358 79.9308 37.0219C79.9324 37.6085 79.8463 38.0485 79.6723 38.3418ZM74.1852 39.6319C73.8339 39.6319 73.5207 39.5673 73.2456 39.4381C72.9722 39.3088 72.7551 39.1306 72.5943 38.9036C72.4336 38.6766 72.3499 38.4164 72.3433 38.1231H73.3873C73.3989 38.3203 73.4818 38.4802 73.6359 38.6028C73.79 38.7255 73.9731 38.7868 74.1852 38.7868C74.3543 38.7868 74.5034 38.7495 74.6327 38.6749C74.7636 38.5987 74.8655 38.4935 74.9384 38.3592C75.013 38.2233 75.0503 38.0676 75.0503 37.8919C75.0503 37.7129 75.0122 37.5555 74.9359 37.4196C74.8614 37.2837 74.7578 37.1776 74.6252 37.1014C74.4926 37.0252 74.341 36.9862 74.1703 36.9846C74.0212 36.9846 73.8762 37.0152 73.7353 37.0765C73.5961 37.1379 73.4876 37.2216 73.4097 37.3276L72.4526 37.1561L72.6938 34.4714H75.806V35.3514H73.5812L73.4494 36.6266H73.4793C73.5688 36.5007 73.7038 36.3963 73.8845 36.3134C74.0651 36.2306 74.2673 36.1891 74.491 36.1891C74.7976 36.1891 75.071 36.2612 75.3113 36.4054C75.5516 36.5496 75.7413 36.7476 75.8805 36.9995C76.0198 37.2497 76.0885 37.5381 76.0869 37.8645C76.0885 38.2076 76.009 38.5125 75.8482 38.7793C75.6891 39.0445 75.4662 39.2533 75.1796 39.4057C74.8945 39.5565 74.5631 39.6319 74.1852 39.6319ZM70.9756 39.5623V34.4714H69.9639L68.7036 35.2694V36.2239L69.8695 35.4931H69.8993V39.5623H70.9756ZM66.0051 34.4714V39.5623H64.9287V34.4714H66.0051ZM59.9624 34.4714V39.5623H61.0388V38.1156L61.5682 37.4693L62.9628 39.5623H64.2504L62.3388 36.7509L64.228 34.4714H62.9379L61.1059 36.7161H61.0388V34.4714H59.9624ZM59.0251 37.0169C59.0251 37.5721 58.9198 38.0444 58.7094 38.4338C58.5006 38.8233 58.2155 39.1207 57.8543 39.3262C57.4947 39.5301 57.0903 39.632 56.6412 39.632C56.1888 39.632 55.7828 39.5292 55.4232 39.3237C55.0636 39.1182 54.7793 38.8208 54.5705 38.4313C54.3617 38.0419 54.2573 37.5704 54.2573 37.0169C54.2573 36.4618 54.3617 35.9895 54.5705 35.6C54.7793 35.2106 55.0636 34.9139 55.4232 34.7101C55.7828 34.5046 56.1888 34.4019 56.6412 34.4019C57.0903 34.4019 57.4947 34.5046 57.8543 34.7101C58.2155 34.9139 58.5006 35.2106 58.7094 35.6C58.9198 35.9895 59.0251 36.4618 59.0251 37.0169ZM57.9338 37.0169C57.9338 36.6573 57.88 36.354 57.7722 36.1071C57.6662 35.8602 57.5162 35.6729 57.3223 35.5453C57.1284 35.4177 56.9014 35.3539 56.6412 35.3539C56.381 35.3539 56.154 35.4177 55.9601 35.5453C55.7662 35.6729 55.6154 35.8602 55.5077 36.1071C55.4016 36.354 55.3486 36.6573 55.3486 37.0169C55.3486 37.3765 55.4016 37.6798 55.5077 37.9267C55.6154 38.1736 55.7662 38.3609 55.9601 38.4885C56.154 38.6161 56.381 38.6799 56.6412 38.6799C56.9014 38.6799 57.1284 38.6161 57.3223 38.4885C57.5162 38.3609 57.6662 38.1736 57.7722 37.9267C57.88 37.6798 57.9338 37.3765 57.9338 37.0169ZM50.3497 34.4714H49.144L51.0009 37.7626V39.5623H52.0698V37.7626L53.9267 34.4714H52.7211L51.5602 36.6639H51.5105L50.3497 34.4714Z" fill="white"/>
<path d="M18.2446 64.4998C11.4132 64.4998 5.33067 62.9954 0 59.9823V44.8968C5.69143 48.4525 11.5041 50.2281 17.4321 50.2281C20.9071 50.2281 23.7066 49.52 25.8352 48.1042C27.9636 46.6913 29.0257 44.5661 29.0257 41.7373C29.0257 39.1478 27.9636 37.0835 25.8352 35.5488C23.7066 34.011 20.7887 33.2437 17.0728 33.2437C12.6413 33.2437 7.60782 34.2068 1.97844 36.1348L6.1128 0H40.9786V13.8221H18.0642L17.2517 20.778C18.5116 20.5372 19.8017 20.4168 21.1178 20.4168C28.1254 20.4168 33.9076 22.3752 38.4633 26.2876C43.0133 30.1436 45.2904 35.2933 45.2904 41.7373C45.2904 49.024 42.6843 54.6541 37.472 58.6288C32.2019 62.5427 25.7918 64.4998 18.2446 64.4998Z" fill="white"/>
</svg>