<svg xmlns="http://www.w3.org/2000/svg" width="136" height="80" viewBox="0 0 136 80" fill="none">
<path fill-rule="evenodd" clip-rule="evenodd" d="M135.711 44.7979C136.086 41.702 136.101 38.5327 135.728 35.3398L130.352 33.9767C130.181 32.9968 129.975 32.0171 129.716 31.0373C129.458 30.0591 129.15 29.1059 128.816 28.17L132.805 24.2995C131.554 21.3414 129.975 18.6008 128.12 16.1013L122.797 17.6209C121.507 16.0746 120.092 14.6535 118.571 13.3653L120.1 8.0174C117.585 6.11881 114.852 4.52701 111.965 3.27346L108.112 7.26604C106.245 6.57892 104.313 6.05001 102.339 5.69318L101.004 0.290271C97.9298 -0.0853565 94.7778 -0.102581 91.6038 0.274619L90.2477 5.68067C89.2751 5.85275 88.2991 6.05931 87.3249 6.31912C86.3523 6.57892 85.4052 6.88893 84.475 7.22531L80.6289 3.21243C77.6875 4.47073 74.9615 6.06252 72.4766 7.92494L73.9889 13.2808C73.2557 13.8991 72.553 14.5518 71.8758 15.2264H83.0137C84.8875 14.2167 86.9022 13.3998 89.0459 12.8269C103.967 8.83282 119.279 17.7634 123.249 32.7715C127.217 47.778 118.342 63.1836 103.422 67.1762C95.9167 69.1858 88.3127 67.9211 82.1022 64.2588H71.3853C72.1881 65.0898 73.0181 65.8912 73.8973 66.6346L72.368 71.9827C74.8835 73.8813 77.6162 75.4729 80.505 76.7266L84.3613 72.7323C86.2267 73.4195 88.1566 73.9485 90.134 74.3069L91.4663 79.7097C94.5419 80.0853 97.6938 80.1026 100.866 79.7255L102.221 74.3179C103.193 74.1458 104.169 73.9391 105.143 73.6793C106.116 73.4179 107.065 73.1096 107.995 72.7731L111.841 76.7861C114.781 75.5294 117.507 73.9376 119.99 72.0751L118.479 66.7191C120.017 65.4216 121.431 63.9973 122.711 62.4682L128.028 64.0068C129.912 61.476 131.498 58.7277 132.744 55.8227L128.775 51.9443C129.458 50.0677 129.984 48.1253 130.34 46.1392L135.711 44.7979ZM77.21 38.2727V39.4091H75.3463V44.5C75.3463 44.8788 75.4012 45.1629 75.5111 45.3523C75.6247 45.5379 75.7687 45.6629 75.9429 45.7273C76.1209 45.7879 76.3084 45.8182 76.5054 45.8182C76.6531 45.8182 76.7743 45.8106 76.869 45.7955L77.0963 45.75L77.369 46.9545C77.2781 46.9886 77.1512 47.0227 76.9884 47.0568C76.8255 47.0947 76.619 47.1136 76.369 47.1136C75.9903 47.1136 75.619 47.0322 75.2554 46.8693C74.8956 46.7064 74.5963 46.4583 74.3577 46.125C74.1228 45.7917 74.0054 45.3712 74.0054 44.8636V39.4091H72.6872V38.2727H74.0054V36.1818H75.3463V38.2727H77.21ZM65.1414 46.892C65.5921 47.1004 66.094 47.2045 66.6471 47.2045C67.1546 47.2045 67.5846 47.1288 67.9368 46.9773C68.2891 46.8258 68.5713 46.642 68.7834 46.4261C68.9955 46.2102 69.1471 46.0076 69.238 45.8182H69.3061V47H70.6471V41.25C70.6471 40.5568 70.5334 40.0038 70.3061 39.5909C70.0789 39.178 69.7929 38.8693 69.4482 38.6648C69.1073 38.4602 68.7531 38.3258 68.3857 38.2614C68.0221 38.1932 67.7001 38.1591 67.4198 38.1591C66.9804 38.1591 66.5334 38.2197 66.0789 38.3409C65.6281 38.4583 65.2115 38.6667 64.8289 38.9659C64.4501 39.2614 64.1471 39.6742 63.9198 40.2045L65.1925 40.6591C65.3402 40.3409 65.5959 40.0417 65.9596 39.7614C66.3232 39.4811 66.8251 39.3409 67.4652 39.3409C68.0827 39.3409 68.5429 39.4962 68.8459 39.8068C69.1527 40.1174 69.3061 40.553 69.3061 41.1136V41.1591C69.3061 41.375 69.2285 41.5265 69.0732 41.6136C68.9217 41.7008 68.6793 41.7633 68.3459 41.8011C68.0164 41.8352 67.5865 41.8864 67.0561 41.9545C66.6508 42.0076 66.2474 42.0795 65.8459 42.1705C65.4482 42.2576 65.0846 42.3902 64.755 42.5682C64.4255 42.7462 64.1622 42.9924 63.9652 43.3068C63.7683 43.6174 63.6698 44.0227 63.6698 44.5227C63.6698 45.0909 63.8024 45.5758 64.0675 45.9773C64.3327 46.375 64.6906 46.6799 65.1414 46.892ZM68.1925 45.6875C67.8289 45.8958 67.3819 46 66.8516 46C66.3175 46 65.8762 45.8826 65.5277 45.6477C65.183 45.4091 65.0107 45.0568 65.0107 44.5909C65.0107 44.25 65.1016 43.9811 65.2834 43.7841C65.469 43.5833 65.7115 43.4337 66.0107 43.3352C66.3137 43.233 66.6395 43.1591 66.988 43.1136C67.1319 43.0947 67.3194 43.072 67.5505 43.0455C67.7853 43.0152 68.0258 42.9811 68.2721 42.9432C68.5221 42.9015 68.7418 42.8542 68.9311 42.8011C69.1243 42.7443 69.2493 42.6818 69.3061 42.6136V43.8409C69.3061 44.2045 69.2115 44.5511 69.0221 44.8807C68.8365 45.2102 68.5599 45.4792 68.1925 45.6875ZM49.8526 47V38.2727H51.1481V39.6364H51.2617C51.4435 39.1705 51.7371 38.8087 52.1424 38.5511C52.5477 38.2898 53.0344 38.1591 53.6026 38.1591C54.1784 38.1591 54.6575 38.2898 55.0401 38.5511C55.4265 38.8087 55.7276 39.1705 55.9435 39.6364H56.0344C56.2579 39.1856 56.5932 38.8277 57.0401 38.5625C57.4871 38.2936 58.0231 38.1591 58.6481 38.1591C59.4284 38.1591 60.0666 38.4034 60.5629 38.892C61.0591 39.3769 61.3072 40.1326 61.3072 41.1591V47H59.9663V41.1591C59.9663 40.5152 59.7901 40.0549 59.4379 39.7784C59.0856 39.5019 58.6708 39.3636 58.1935 39.3636C57.5799 39.3636 57.1045 39.5492 56.7674 39.9205C56.4303 40.2879 56.2617 40.7538 56.2617 41.3182V47H54.8981V41.0227C54.8981 40.5265 54.7371 40.1269 54.4151 39.8239C54.0932 39.517 53.6784 39.3636 53.1708 39.3636C52.8223 39.3636 52.4966 39.4564 52.1935 39.642C51.8943 39.8277 51.6519 40.0852 51.4663 40.4148C51.2844 40.7405 51.1935 41.1174 51.1935 41.5455V47H49.8526ZM40.6264 45.9773V47H47.4673V45.75H42.49V45.6591L47.3082 39.3409V38.2727H40.7855V39.5227H45.5809V39.6136L40.6264 45.9773ZM36.7595 47V38.2727H38.1004V47H36.7595ZM37.4413 36.8182C37.1799 36.8182 36.9546 36.7292 36.7652 36.5511C36.5796 36.3731 36.4868 36.1591 36.4868 35.9091C36.4868 35.6591 36.5796 35.4451 36.7652 35.267C36.9546 35.089 37.1799 35 37.4413 35C37.7027 35 37.9262 35.089 38.1118 35.267C38.3012 35.4451 38.3959 35.6591 38.3959 35.9091C38.3959 36.1591 38.3012 36.3731 38.1118 36.5511C37.9262 36.7292 37.7027 36.8182 37.4413 36.8182ZM30.8898 41.8409L28.7989 38.2727H27.2534L30.0261 42.6364L27.2534 47H28.7989L30.8898 43.6136L32.9807 47H34.5261L31.708 42.6364L34.5261 38.2727H32.9807L30.8898 41.8409ZM77.0494 26.2273L75.8449 26.5682C75.7691 26.3674 75.6574 26.1723 75.5097 25.983C75.3657 25.7898 75.1688 25.6307 74.9188 25.5057C74.6688 25.3807 74.3487 25.3182 73.9585 25.3182C73.4244 25.3182 72.9794 25.4413 72.6233 25.6875C72.271 25.9299 72.0949 26.2386 72.0949 26.6136C72.0949 26.947 72.2161 27.2102 72.4585 27.4034C72.701 27.5966 73.0797 27.7576 73.5949 27.8864L74.8904 28.2045C75.6707 28.3939 76.2521 28.6837 76.6347 29.0739C77.0173 29.4602 77.2085 29.9583 77.2085 30.5682C77.2085 31.0682 77.0646 31.5152 76.7767 31.9091C76.4926 32.303 76.0949 32.6136 75.5835 32.8409C75.0722 33.0682 74.4775 33.1818 73.7994 33.1818C72.9093 33.1818 72.1726 32.9886 71.5892 32.6023C71.0059 32.2159 70.6366 31.6515 70.4813 30.9091L71.754 30.5909C71.8752 31.0606 72.1044 31.4129 72.4415 31.6477C72.7824 31.8826 73.2275 32 73.7767 32C74.4017 32 74.8979 31.8674 75.2654 31.6023C75.6366 31.3333 75.8222 31.0114 75.8222 30.6364C75.8222 30.3333 75.7161 30.0795 75.504 29.875C75.2919 29.6667 74.9661 29.5114 74.5267 29.4091L73.0722 29.0682C72.2729 28.8788 71.6858 28.5852 71.3108 28.1875C70.9396 27.786 70.754 27.2841 70.754 26.6818C70.754 26.1894 70.8922 25.7538 71.1688 25.375C71.4491 24.9962 71.8298 24.6989 72.3108 24.483C72.7957 24.267 73.3449 24.1591 73.9585 24.1591C74.8222 24.1591 75.5002 24.3485 75.9926 24.7273C76.4888 25.1061 76.8411 25.6061 77.0494 26.2273ZM66.7507 24.2727V33H68.0917V24.2727H66.7507ZM66.7564 22.5511C66.9458 22.7292 67.1712 22.8182 67.4326 22.8182C67.6939 22.8182 67.9174 22.7292 68.103 22.5511C68.2924 22.3731 68.3871 22.1591 68.3871 21.9091C68.3871 21.6591 68.2924 21.4451 68.103 21.267C67.9174 21.089 67.6939 21 67.4326 21C67.1712 21 66.9458 21.089 66.7564 21.267C66.5708 21.4451 66.478 21.6591 66.478 21.9091C66.478 22.1591 66.5708 22.3731 66.7564 22.5511ZM64.6609 24.2727L61.4336 33H60.07L56.8427 24.2727H58.2972L60.7063 31.2273H60.7972L63.2063 24.2727H64.6609ZM50.9857 24.2727V33H52.3267V27.4773C52.3267 27.0833 52.4214 26.733 52.6107 26.4261C52.8039 26.1155 53.0653 25.8731 53.3948 25.6989C53.7282 25.5208 54.107 25.4318 54.5312 25.4318C54.7092 25.4318 54.8778 25.4451 55.0369 25.4716C55.1998 25.4943 55.3039 25.5114 55.3494 25.5227V24.1591C55.2736 24.1515 55.1619 24.1458 55.0142 24.142C54.8664 24.1383 54.7433 24.1364 54.6448 24.1364C54.1221 24.1364 53.6524 24.2708 53.2357 24.5398C52.8191 24.8087 52.5312 25.1591 52.3721 25.5909H52.2812V24.2727H50.9857ZM45.0123 33.1818C44.1714 33.1818 43.4461 32.9962 42.8362 32.625C42.2301 32.25 41.7623 31.7273 41.4328 31.0568C41.107 30.3826 40.9442 29.5985 40.9442 28.7045C40.9442 27.8106 41.107 27.0227 41.4328 26.3409C41.7623 25.6553 42.2207 25.1212 42.8078 24.7386C43.3987 24.3523 44.0881 24.1591 44.876 24.1591C45.3305 24.1591 45.7794 24.2348 46.2226 24.3864C46.6658 24.5379 47.0692 24.7841 47.4328 25.125C47.7964 25.4621 48.0862 25.9091 48.3021 26.4659C48.518 27.0227 48.626 27.7083 48.626 28.5227V29.0909H42.288C42.3073 29.6715 42.4199 30.1696 42.626 30.5852C42.857 31.0398 43.1771 31.3864 43.5862 31.625C43.9953 31.8598 44.4707 31.9773 45.0123 31.9773C45.3646 31.9773 45.6828 31.928 45.9669 31.8295C46.2548 31.7273 46.5029 31.5758 46.7112 31.375C46.9195 31.1705 47.0805 30.9167 47.1942 30.6136L48.4896 30.9773C48.3532 31.4167 48.1241 31.803 47.8021 32.1364C47.4801 32.4659 47.0824 32.7235 46.6089 32.9091C46.1354 33.0909 45.6032 33.1818 45.0123 33.1818ZM42.2915 27.9318H47.2623C47.2623 27.4394 47.1639 27 46.9669 26.6136C46.7737 26.2273 46.4972 25.9223 46.1373 25.6989C45.7813 25.4754 45.3608 25.3636 44.876 25.3636C44.3419 25.3636 43.8798 25.4962 43.4896 25.7614C43.1032 26.0227 42.8059 26.3636 42.5976 26.7841C42.419 27.1444 42.317 27.527 42.2915 27.9318ZM36.546 22.9318C37.0309 23.25 37.3074 23.697 37.3756 24.2727H38.7392C38.7203 23.6856 38.5385 23.161 38.1938 22.6989C37.8529 22.2367 37.3907 21.8731 36.8074 21.608C36.2241 21.339 35.5574 21.2045 34.8074 21.2045C34.065 21.2045 33.3926 21.3409 32.7904 21.6136C32.1919 21.8826 31.7146 22.2614 31.3585 22.75C31.0063 23.2348 30.8301 23.803 30.8301 24.4545C30.8301 25.2386 31.0953 25.8731 31.6256 26.358C32.1559 26.8428 32.8756 27.2159 33.7847 27.4773L35.2165 27.8864C35.6256 28 36.0063 28.1326 36.3585 28.2841C36.7108 28.4356 36.9949 28.6326 37.2108 28.875C37.4267 29.1174 37.5347 29.4318 37.5347 29.8182C37.5347 30.2424 37.4097 30.6136 37.1597 30.9318C36.9097 31.2462 36.5707 31.4924 36.1426 31.6705C35.7146 31.8447 35.2316 31.9318 34.6938 31.9318C34.2316 31.9318 33.7998 31.8636 33.3983 31.7273C33.0006 31.5871 32.671 31.375 32.4097 31.0909C32.1521 30.803 32.0044 30.4394 31.9665 30H30.5119C30.5574 30.6364 30.7525 31.1951 31.0972 31.6761C31.4457 32.1572 31.9229 32.5322 32.529 32.8011C33.1388 33.0701 33.8604 33.2045 34.6938 33.2045C35.5877 33.2045 36.3472 33.0549 36.9722 32.7557C37.601 32.4564 38.0782 32.053 38.404 31.5455C38.7335 31.0379 38.8983 30.4697 38.8983 29.8409C38.8983 29.2955 38.7866 28.8352 38.5631 28.4602C38.3396 28.0852 38.0555 27.7784 37.7108 27.5398C37.3699 27.2973 37.0119 27.1061 36.6369 26.9659C36.2657 26.8258 35.9286 26.7159 35.6256 26.6364L34.4438 26.3182C34.2279 26.2614 33.9911 26.1875 33.7335 26.0966C33.476 26.0019 33.2297 25.8826 32.9949 25.7386C32.76 25.5909 32.5669 25.4072 32.4154 25.1875C32.2676 24.964 32.1938 24.697 32.1938 24.3864C32.1938 24.0152 32.2998 23.6837 32.5119 23.392C32.7279 23.1004 33.0271 22.8712 33.4097 22.7045C33.796 22.5379 34.2468 22.4545 34.7619 22.4545C35.4665 22.4545 36.0612 22.6136 36.546 22.9318Z" fill="white"/>
<path fill-rule="evenodd" clip-rule="evenodd" d="M58.572 53.8579V53.0909H57.5141V52.6498C57.5141 52.4325 57.5631 52.2663 57.6611 52.1513C57.7613 52.0362 57.9275 51.9787 58.1597 51.9787C58.2599 51.9787 58.3451 51.9883 58.4154 52.0074C58.4857 52.0245 58.5432 52.0394 58.588 52.0522L58.8117 51.2787C58.7457 51.2532 58.6444 51.2255 58.5081 51.1956C58.3717 51.1637 58.2077 51.1477 58.0159 51.1477C57.7559 51.1477 57.5152 51.1988 57.2936 51.3011C57.072 51.4013 56.8941 51.5536 56.7599 51.7581C56.6256 51.9606 56.5585 52.2152 56.5585 52.522V53.0909H55.7979V53.8579H56.5585V58H57.5141V53.8579H58.572ZM76.4012 53.0908V57.9999H77.3568V53.0908H76.4012ZM76.4556 52.1672C76.5749 52.278 76.7176 52.3334 76.8838 52.3334C77.05 52.3334 77.1917 52.278 77.3089 52.1672C77.4282 52.0542 77.4879 51.92 77.4879 51.7645C77.4879 51.6068 77.4282 51.4726 77.3089 51.3618C77.1917 51.2488 77.05 51.1924 76.8838 51.1924C76.7176 51.1924 76.5749 51.2488 76.4556 51.3618C76.3384 51.4726 76.2798 51.6068 76.2798 51.7645C76.2798 51.92 76.3384 52.0542 76.4556 52.1672ZM75.1639 53.858V53.0909H74.1571V51.9148H73.2015V53.0909H72.4824V53.858H73.2015V56.7568C73.2015 57.0529 73.2686 57.299 73.4029 57.4951C73.5371 57.6911 73.7129 57.836 73.9302 57.9297C74.1476 58.0235 74.3819 58.0682 74.6333 58.0639C74.7868 58.0618 74.9146 58.049 75.0169 58.0256C75.1191 58.0043 75.198 57.983 75.2534 57.9617L75.0808 57.1723C75.0488 57.1786 75.0041 57.1872 74.9466 57.1978C74.889 57.2085 74.8219 57.2138 74.7452 57.2138C74.6408 57.2138 74.5439 57.1978 74.4544 57.1659C74.367 57.1318 74.2956 57.0689 74.2402 56.9773C74.1848 56.8835 74.1571 56.744 74.1571 56.5586V53.858H75.1639ZM68.9971 58.1085C68.686 58.1085 68.4048 58.051 68.1534 57.9359C67.9019 57.8188 67.7027 57.6494 67.5557 57.4278C67.4108 57.2062 67.3384 56.9345 67.3384 56.6128C67.3384 56.3358 67.3916 56.1078 67.4982 55.9288C67.6047 55.7499 67.7485 55.6082 67.9296 55.5038C68.1107 55.3994 68.3132 55.3205 68.5369 55.2673C68.7606 55.214 68.9886 55.1735 69.2208 55.1458L69.9367 55.0627C70.12 55.0393 70.2532 55.002 70.3363 54.9509C70.4193 54.8997 70.4609 54.8166 70.4609 54.7016V54.6792C70.4609 54.4001 70.3821 54.1838 70.2244 54.0304C70.0688 53.877 69.8366 53.8003 69.5277 53.8003C69.2059 53.8003 68.9524 53.8717 68.767 54.0144C68.5838 54.1551 68.457 54.3117 68.3867 54.4842L67.4886 54.2797C67.5951 53.9814 67.7507 53.7406 67.9552 53.5574C68.1619 53.372 68.3995 53.2378 68.6679 53.1547C68.9364 53.0695 69.2187 53.0269 69.5149 53.0269C69.7109 53.0269 69.9186 53.0503 70.1381 53.0972C70.3597 53.1419 70.5664 53.225 70.7581 53.3465C70.952 53.4679 71.1107 53.6416 71.2343 53.8674C71.3579 54.0911 71.4197 54.382 71.4197 54.7399V57.9999H70.4865V57.3287H70.4481C70.3863 57.4523 70.2936 57.5737 70.1701 57.693C70.0465 57.8124 69.8877 57.9114 69.6938 57.9903C69.5 58.0691 69.2677 58.1085 68.9971 58.1085ZM69.2049 57.3415C69.4691 57.3415 69.6949 57.2893 69.8824 57.1849C70.072 57.0805 70.2159 56.9441 70.3139 56.7758C70.414 56.6053 70.4641 56.4232 70.4641 56.2293V55.5965C70.43 55.6305 70.364 55.6625 70.2659 55.6923C70.1701 55.72 70.0603 55.7445 69.9367 55.7658C69.8132 55.785 69.6928 55.8031 69.5756 55.8202C69.4584 55.8351 69.3604 55.8479 69.2816 55.8585C69.0962 55.882 68.9268 55.9214 68.7734 55.9768C68.6221 56.0322 68.5007 56.1121 68.409 56.2165C68.3196 56.3188 68.2748 56.4551 68.2748 56.6256C68.2748 56.8621 68.3622 57.0411 68.5369 57.1625C68.7116 57.2818 68.9343 57.3415 69.2049 57.3415ZM66.1031 58V51.4546H65.1475V58H66.1031ZM61.6121 58.0989C61.1519 58.0989 60.7502 57.9935 60.4072 57.7825C60.0641 57.5716 59.7978 57.2765 59.6082 56.8972C59.4185 56.518 59.3237 56.0748 59.3237 55.5677C59.3237 55.0585 59.4185 54.6131 59.6082 54.2318C59.7978 53.8504 60.0641 53.5542 60.4072 53.3433C60.7502 53.1323 61.1519 53.0269 61.6121 53.0269C62.0723 53.0269 62.4739 53.1323 62.817 53.3433C63.16 53.5542 63.4264 53.8504 63.616 54.2318C63.8056 54.6131 63.9004 55.0585 63.9004 55.5677C63.9004 56.0748 63.8056 56.518 63.616 56.8972C63.4264 57.2765 63.16 57.5716 62.817 57.7825C62.4739 57.9935 62.0723 58.0989 61.6121 58.0989ZM61.6153 57.2967C61.9136 57.2967 62.1607 57.2179 62.3568 57.0602C62.5528 56.9026 62.6977 56.6927 62.7914 56.4306C62.8873 56.1685 62.9352 55.8798 62.9352 55.5645C62.9352 55.2513 62.8873 54.9636 62.7914 54.7016C62.6977 54.4374 62.5528 54.2254 62.3568 54.0656C62.1607 53.9058 61.9136 53.8259 61.6153 53.8259C61.3149 53.8259 61.0656 53.9058 60.8674 54.0656C60.6714 54.2254 60.5254 54.4374 60.4296 54.7016C60.3358 54.9636 60.2889 55.2513 60.2889 55.5645C60.2889 55.8798 60.3358 56.1685 60.4296 56.4306C60.5254 56.6927 60.6714 56.9026 60.8674 57.0602C61.0656 57.2179 61.3149 57.2967 61.6153 57.2967ZM52.3599 58.1085C52.0488 58.1085 51.7676 58.051 51.5162 57.9359C51.2647 57.8188 51.0655 57.6494 50.9185 57.4278C50.7736 57.2062 50.7012 56.9345 50.7012 56.6128C50.7012 56.3358 50.7544 56.1078 50.861 55.9288C50.9675 55.7499 51.1113 55.6082 51.2924 55.5038C51.4735 55.3994 51.676 55.3205 51.8997 55.2673C52.1234 55.214 52.3514 55.1735 52.5836 55.1458L53.2995 55.0627C53.4828 55.0393 53.6159 55.002 53.699 54.9509C53.7821 54.8997 53.8237 54.8166 53.8237 54.7016V54.6792C53.8237 54.4001 53.7448 54.1838 53.5872 54.0304C53.4316 53.877 53.1994 53.8003 52.8904 53.8003C52.5687 53.8003 52.3152 53.8717 52.1298 54.0144C51.9466 54.1551 51.8198 54.3117 51.7495 54.4842L50.8514 54.2797C50.9579 53.9814 51.1135 53.7406 51.318 53.5574C51.5247 53.372 51.7622 53.2378 52.0307 53.1547C52.2992 53.0695 52.5815 53.0269 52.8777 53.0269C53.0737 53.0269 53.2814 53.0503 53.5009 53.0972C53.7225 53.1419 53.9292 53.225 54.1209 53.3465C54.3148 53.4679 54.4735 53.6416 54.5971 53.8674C54.7207 54.0911 54.7825 54.382 54.7825 54.7399V57.9999H53.8493V57.3287H53.8109C53.7491 57.4523 53.6564 57.5737 53.5328 57.693C53.4093 57.8124 53.2505 57.9114 53.0566 57.9903C52.8627 58.0691 52.6305 58.1085 52.3599 58.1085ZM52.5676 57.3415C52.8319 57.3415 53.0577 57.2893 53.2452 57.1849C53.4348 57.0805 53.5787 56.9441 53.6767 56.7758C53.7768 56.6053 53.8269 56.4232 53.8269 56.2293V55.5965C53.7928 55.6305 53.7267 55.6625 53.6287 55.6923C53.5328 55.72 53.4231 55.7445 53.2995 55.7658C53.176 55.785 53.0556 55.8031 52.9384 55.8202C52.8212 55.8351 52.7232 55.8479 52.6444 55.8585C52.459 55.882 52.2896 55.9214 52.1362 55.9768C51.9849 56.0322 51.8635 56.1121 51.7718 56.2165C51.6824 56.3188 51.6376 56.4551 51.6376 56.6256C51.6376 56.8621 51.725 57.0411 51.8997 57.1625C52.0744 57.2818 52.2971 57.3415 52.5676 57.3415ZM46.6973 56.2582V58H45.7417V51.4546H46.6973V55.1684H46.7804L48.7364 53.091H49.8806L47.8931 55.198L50.0148 58H48.8418L47.1719 55.7836L46.6973 56.2582ZM38.5415 55.0853V58H37.5859V51.4546H38.5288V53.89H38.5895C38.7045 53.6258 38.8803 53.4159 39.1168 53.2603C39.3533 53.1048 39.6623 53.027 40.0437 53.027C40.3803 53.027 40.6744 53.0963 40.9258 53.2348C41.1793 53.3733 41.3754 53.5799 41.5139 53.8548C41.6545 54.1275 41.7248 54.4684 41.7248 54.8775V58H40.7692V54.9926C40.7692 54.6325 40.6765 54.3534 40.4911 54.1552C40.3058 53.9549 40.0479 53.8548 39.7177 53.8548C39.4918 53.8548 39.2894 53.9027 39.1104 53.9986C38.9336 54.0945 38.794 54.2351 38.6918 54.4205C38.5916 54.6037 38.5415 54.8253 38.5415 55.0853ZM35.3931 54.4427L36.2592 54.2893C36.1612 53.9058 35.9599 53.6 35.6552 53.372C35.3505 53.1419 34.9329 53.0269 34.4023 53.0269C34.0337 53.0269 33.7067 53.0886 33.4212 53.2122C33.1357 53.3337 32.9119 53.5031 32.75 53.7204C32.5881 53.9377 32.5071 54.1913 32.5071 54.481C32.5071 54.8305 32.6158 55.1192 32.8331 55.3472C33.0526 55.5752 33.3913 55.7413 33.8494 55.8457L34.6804 56.0279C34.9148 56.0812 35.0884 56.16 35.2013 56.2644C35.3164 56.3688 35.3739 56.4977 35.3739 56.6511C35.3739 56.8408 35.2802 57.0016 35.0927 57.1337C34.9052 57.2637 34.6548 57.3287 34.3416 57.3287C34.054 57.3287 33.8207 57.268 33.6417 57.1465C33.4627 57.0229 33.3445 56.8408 33.2869 56.6L32.3633 56.7406C32.4421 57.1753 32.6552 57.5109 33.0025 57.7474C33.3498 57.9818 33.7983 58.0989 34.348 58.0989C34.7443 58.0989 35.0927 58.034 35.3931 57.904C35.6957 57.774 35.9311 57.595 36.0994 57.3671C36.2699 57.1369 36.3551 56.8749 36.3551 56.5808C36.3551 56.2335 36.2443 55.9512 36.0227 55.7339C35.8011 55.5166 35.4645 55.3557 35.0128 55.2513L34.233 55.0723C33.9624 55.0084 33.7663 54.9264 33.6449 54.8262C33.5234 54.7261 33.4627 54.594 33.4627 54.4299C33.4627 54.2403 33.5533 54.0858 33.7344 53.9665C33.9155 53.845 34.1413 53.7843 34.4119 53.7843C34.6101 53.7843 34.7752 53.8163 34.9073 53.8802C35.0394 53.9441 35.1438 54.0261 35.2205 54.1263C35.2994 54.2264 35.3569 54.3319 35.3931 54.4427ZM30.1595 57.9999V53.0908H31.1151V57.9999H30.1595ZM30.6421 52.3334C30.4759 52.3334 30.3332 52.278 30.2139 52.1672C30.0967 52.0542 30.0381 51.92 30.0381 51.7645C30.0381 51.6068 30.0967 51.4726 30.2139 51.3618C30.3332 51.2488 30.4759 51.1924 30.6421 51.1924C30.8083 51.1924 30.95 51.2488 31.0672 51.3618C31.1865 51.4726 31.2462 51.6068 31.2462 51.7645C31.2462 51.92 31.1865 52.0542 31.0672 52.1672C30.95 52.278 30.8083 52.3334 30.6421 52.3334ZM28.9222 53.858V53.0909H27.9154V51.9148H26.9598V53.0909H26.2407V53.858H26.9598V56.7568C26.9598 57.0529 27.0269 57.299 27.1612 57.4951C27.2954 57.6911 27.4712 57.836 27.6885 57.9297C27.9059 58.0235 28.1402 58.0682 28.3916 58.0639C28.5451 58.0618 28.6729 58.049 28.7752 58.0256C28.8774 58.0043 28.9563 57.983 29.0117 57.9617L28.8391 57.1723C28.8071 57.1786 28.7624 57.1872 28.7049 57.1978C28.6473 57.2085 28.5802 57.2138 28.5035 57.2138C28.3991 57.2138 28.3022 57.1978 28.2127 57.1659C28.1253 57.1318 28.0539 57.0689 27.9985 56.9773C27.9431 56.8835 27.9154 56.744 27.9154 56.5586V53.858H28.9222ZM22.7554 58.1085C22.4443 58.1085 22.1631 58.051 21.9117 57.9359C21.6602 57.8188 21.461 57.6494 21.314 57.4278C21.1691 57.2062 21.0967 56.9345 21.0967 56.6128C21.0967 56.3358 21.1499 56.1078 21.2565 55.9288C21.363 55.7499 21.5068 55.6082 21.6879 55.5038C21.8691 55.3994 22.0715 55.3205 22.2952 55.2673C22.5189 55.214 22.7469 55.1735 22.9791 55.1458L23.695 55.0627C23.8783 55.0393 24.0115 55.002 24.0945 54.9509C24.1776 54.8997 24.2192 54.8166 24.2192 54.7016V54.6792C24.2192 54.4001 24.1404 54.1838 23.9827 54.0304C23.8271 53.877 23.5949 53.8003 23.286 53.8003C22.9642 53.8003 22.7107 53.8717 22.5253 54.0144C22.3421 54.1551 22.2153 54.3117 22.145 54.4842L21.2469 54.2797C21.3534 53.9814 21.509 53.7406 21.7135 53.5574C21.9202 53.372 22.1578 53.2378 22.4262 53.1547C22.6947 53.0695 22.977 53.0269 23.2732 53.0269C23.4692 53.0269 23.6769 53.0503 23.8964 53.0972C24.118 53.1419 24.3247 53.225 24.5164 53.3465C24.7103 53.4679 24.8691 53.6416 24.9926 53.8674C25.1162 54.0911 25.178 54.382 25.178 54.7399V57.9999H24.2448V57.3287H24.2064C24.1446 57.4523 24.0519 57.5737 23.9284 57.693C23.8048 57.8124 23.646 57.9114 23.4521 57.9903C23.2583 58.0691 23.026 58.1085 22.7554 58.1085ZM22.9632 57.3415C23.2274 57.3415 23.4532 57.2893 23.6407 57.1849C23.8303 57.0805 23.9742 56.9441 24.0722 56.7758C24.1723 56.6053 24.2224 56.4232 24.2224 56.2293V55.5965C24.1883 55.6305 24.1222 55.6625 24.0242 55.6923C23.9284 55.72 23.8186 55.7445 23.695 55.7658C23.5715 55.785 23.4511 55.8031 23.3339 55.8202C23.2167 55.8351 23.1187 55.8479 23.0399 55.8585C22.8545 55.882 22.6851 55.9214 22.5317 55.9768C22.3804 56.0322 22.259 56.1121 22.1673 56.2165C22.0779 56.3188 22.0331 56.4551 22.0331 56.6256C22.0331 56.8621 22.1205 57.0411 22.2952 57.1625C22.4699 57.2818 22.6926 57.3415 22.9632 57.3415ZM19.1338 54.4427L20 54.2893C19.9019 53.9058 19.7006 53.6 19.3959 53.372C19.0912 53.1419 18.6736 53.0269 18.1431 53.0269C17.7745 53.0269 17.4474 53.0886 17.1619 53.2122C16.8764 53.3337 16.6527 53.5031 16.4907 53.7204C16.3288 53.9377 16.2478 54.1913 16.2478 54.481C16.2478 54.8305 16.3565 55.1192 16.5738 55.3472C16.7933 55.5752 17.1321 55.7413 17.5902 55.8457L18.4211 56.0279C18.6555 56.0812 18.8291 56.16 18.9421 56.2644C19.0571 56.3688 19.1147 56.4977 19.1147 56.6511C19.1147 56.8408 19.0209 57.0016 18.8334 57.1337C18.6459 57.2637 18.3956 57.3287 18.0823 57.3287C17.7947 57.3287 17.5614 57.268 17.3824 57.1465C17.2034 57.0229 17.0852 56.8408 17.0277 56.6L16.104 56.7406C16.1828 57.1753 16.3959 57.5109 16.7432 57.7474C17.0905 57.9818 17.539 58.0989 18.0887 58.0989C18.485 58.0989 18.8334 58.034 19.1338 57.904C19.4364 57.774 19.6718 57.595 19.8402 57.3671C20.0106 57.1369 20.0958 56.8749 20.0958 56.5808C20.0958 56.2335 19.985 55.9512 19.7634 55.7339C19.5419 55.5166 19.2052 55.3557 18.7535 55.2513L17.9737 55.0723C17.7031 55.0084 17.5071 54.9264 17.3856 54.8262C17.2642 54.7261 17.2034 54.594 17.2034 54.4299C17.2034 54.2403 17.294 54.0858 17.4751 53.9665C17.6562 53.845 17.8821 53.7843 18.1527 53.7843C18.3508 53.7843 18.5159 53.8163 18.648 53.8802C18.7801 53.9441 18.8845 54.0261 18.9612 54.1263C19.0401 54.2264 19.0976 54.3319 19.1338 54.4427ZM12.6875 57.9999V53.0908H13.6112V53.8707H13.6623C13.7518 53.6065 13.9094 53.3987 14.1353 53.2474C14.3633 53.094 14.6211 53.0173 14.9087 53.0173C14.9684 53.0173 15.0387 53.0195 15.1197 53.0237C15.2028 53.028 15.2678 53.0333 15.3146 53.0397V53.9538C15.2763 53.9431 15.2081 53.9314 15.1101 53.9186C15.0121 53.9037 14.9141 53.8962 14.8161 53.8962C14.5902 53.8962 14.3888 53.9442 14.212 54.0401C14.0373 54.1338 13.8988 54.2648 13.7965 54.4332C13.6942 54.5994 13.6431 54.789 13.6431 55.0021V57.9999H12.6875ZM10.394 52.8862V53.4999H11.2122V52.8766C11.2122 52.6337 11.258 52.409 11.3497 52.2023C11.4413 51.9956 11.5521 51.7975 11.682 51.6078L11.209 51.269C11.045 51.399 10.9022 51.5556 10.7808 51.7389C10.6593 51.9221 10.5645 52.1139 10.4963 52.3141C10.4281 52.5144 10.394 52.7051 10.394 52.8862ZM7.61013 58.0989C7.1499 58.0989 6.74827 57.9935 6.40523 57.7825C6.06219 57.5716 5.79585 57.2765 5.60622 56.8972C5.41659 56.518 5.32178 56.0748 5.32178 55.5677C5.32178 55.0585 5.41659 54.6131 5.60622 54.2318C5.79585 53.8504 6.06219 53.5542 6.40523 53.3433C6.74827 53.1323 7.1499 53.0269 7.61013 53.0269C8.07036 53.0269 8.47199 53.1323 8.81503 53.3433C9.15807 53.5542 9.42441 53.8504 9.61404 54.2318C9.80367 54.6131 9.89848 55.0585 9.89848 55.5677C9.89848 56.0748 9.80367 56.518 9.61404 56.8972C9.42441 57.2765 9.15807 57.5716 8.81503 57.7825C8.47199 57.9935 8.07036 58.0989 7.61013 58.0989ZM7.61333 57.2967C7.91162 57.2967 8.15878 57.2179 8.3548 57.0602C8.55083 56.9026 8.69571 56.6927 8.78946 56.4306C8.88534 56.1685 8.93328 55.8798 8.93328 55.5645C8.93328 55.2513 8.88534 54.9636 8.78946 54.7016C8.69571 54.4374 8.55083 54.2254 8.3548 54.0656C8.15878 53.9058 7.91162 53.8259 7.61333 53.8259C7.3129 53.8259 7.06361 53.9058 6.86546 54.0656C6.66943 54.2254 6.52348 54.4374 6.4276 54.7016C6.33385 54.9636 6.28698 55.2513 6.28698 55.5645C6.28698 55.8798 6.33385 56.1685 6.4276 56.4306C6.52348 56.6927 6.66943 56.9026 6.86546 57.0602C7.06361 57.2179 7.3129 57.2967 7.61333 57.2967ZM1.5103 56.2582V58H0.554688V51.4546H1.5103V55.1684H1.59339L3.54936 53.091H4.69354L2.70609 55.198L4.82777 58H3.65483L1.98491 55.7836L1.5103 56.2582Z" fill="white"/>
</svg>